<svg width="1280" height="640" xmlns="http://www.w3.org/2000/svg">
  <rect width="1280" height="640" fill="#0d1117"/>
  <defs>
    <pattern id="grid" width="40" height="40" patternUnits="userSpaceOnUse">
      <path d="M 40 0 L 0 0 0 40" fill="none" stroke="#161b22" stroke-width="1"/>
    </pattern>
  </defs>
  <rect width="1280" height="640" fill="url(#grid)"/>
  <rect x="0" y="0" width="6" height="640" fill="#f0883e"/>

  <text x="60" y="96" font-family="system-ui, sans-serif" font-size="20"
        font-weight="600" fill="#f0883e" letter-spacing="4">NODE.JS CLI TOOL</text>

  <text x="60" y="205" font-family="system-ui, sans-serif" font-size="72"
        font-weight="800" fill="#ffffff">skillbrew</text>

  <text x="60" y="265" font-family="system-ui, sans-serif" font-size="28"
        fill="#8b949e">Backup, restore &amp; sync your Claude Code setup</text>

  <rect x="60" y="300" width="270" height="38" rx="6" fill="#161b22"/>
  <rect x="60" y="300" width="4" height="38" rx="2" fill="#58a6ff"/>
  <text x="76" y="324" font-family="'Courier New', monospace" font-size="15"
        fill="#58a6ff">▶ one-command snapshot, commit &amp; push</text>

  <rect x="350" y="300" width="270" height="38" rx="6" fill="#161b22"/>
  <rect x="350" y="300" width="4" height="38" rx="2" fill="#3fb950"/>
  <text x="366" y="324" font-family="'Courier New', monospace" font-size="15"
        fill="#3fb950">▶ secrets redacted, never committed</text>

  <rect x="640" y="300" width="270" height="38" rx="6" fill="#161b22"/>
  <rect x="640" y="300" width="4" height="38" rx="2" fill="#f0883e"/>
  <text x="656" y="324" font-family="'Courier New', monospace" font-size="15"
        fill="#f0883e">▶ MCP connectors tracked automatically</text>

  <rect x="930" y="300" width="270" height="38" rx="6" fill="#161b22"/>
  <rect x="930" y="300" width="4" height="38" rx="2" fill="#d2a8ff"/>
  <text x="946" y="324" font-family="'Courier New', monospace" font-size="15"
        fill="#d2a8ff">▶ private GitHub repo by default</text>

  <rect x="60" y="393" width="1020" height="64" rx="8" fill="#161b22"/>
  <rect x="60" y="393" width="4" height="64" rx="2" fill="#f0883e"/>
  <text x="86" y="430" font-family="'Courier New', monospace" font-size="23"
        fill="#f0883e">$</text>
  <text x="114" y="430" font-family="'Courier New', monospace" font-size="23"
        fill="#e6edf3">npm install -g skillbrew</text>

  <rect x="60" y="488" width="160" height="34" rx="17" fill="#161b22"/>
  <text x="140" y="510" font-family="system-ui, sans-serif" font-size="14"
        fill="#8b949e" text-anchor="middle">MIT license</text>

  <rect x="234" y="488" width="160" height="34" rx="17" fill="#161b22"/>
  <text x="314" y="510" font-family="system-ui, sans-serif" font-size="14"
        fill="#8b949e" text-anchor="middle">private repo</text>

  <rect x="408" y="488" width="160" height="34" rx="17" fill="#161b22"/>
  <text x="488" y="510" font-family="system-ui, sans-serif" font-size="14"
        fill="#8b949e" text-anchor="middle">Node 18+</text>

  <rect x="582" y="488" width="160" height="34" rx="17" fill="#161b22"/>
  <text x="662" y="510" font-family="system-ui, sans-serif" font-size="14"
        fill="#8b949e" text-anchor="middle">re-auth checklist</text>

  <rect x="756" y="488" width="160" height="34" rx="17" fill="#161b22"/>
  <text x="836" y="510" font-family="system-ui, sans-serif" font-size="14"
        fill="#8b949e" text-anchor="middle">open source</text>

  <text x="1220" y="610" font-family="system-ui, sans-serif" font-size="19"
        fill="#484f58" text-anchor="end">github.com/Rishiidev</text>
</svg>
